<svg width="24" height="25" viewBox="0 0 24 25" fill="none" xmlns="http://www.w3.org/2000/svg">
<path d="M21 2.01367H3C2.73478 2.01367 2.48043 2.11903 2.29289 2.30657C2.10536 2.4941 2 2.74846 2 3.01367V21.0137C2 21.2789 2.10536 21.5332 2.29289 21.7208C2.48043 21.9083 2.73478 22.0137 3 22.0137H21C21.2652 22.0137 21.5196 21.9083 21.7071 21.7208C21.8946 21.5332 22 21.2789 22 21.0137V3.01367C22 2.74846 21.8946 2.4941 21.7071 2.30657C21.5196 2.11903 21.2652 2.01367 21 2.01367ZM8 20.0137H4V16.0137H8V20.0137ZM8 14.0137H4V10.0137H8V14.0137ZM8 8.01367H4V4.01367H8V8.01367ZM14 20.0137H10V16.0137H14V20.0137ZM14 14.0137H10V10.0137H14V14.0137ZM14 8.01367H10V4.01367H14V8.01367ZM20 20.0137H16V16.0137H20V20.0137ZM20 14.0137H16V10.0137H20V14.0137ZM20 8.01367H16V4.01367H20V8.01367Z" fill="#F0FDF4"/>
</svg>
