<?xml version="1.0" standalone="no"?>
<svg xmlns:xlink="http://www.w3.org/1999/xlink" id="wave" style="transform:rotate(180deg); transition: 0.3s" viewBox="0 0 1440 490" version="1.1" xmlns="http://www.w3.org/2000/svg"><defs><linearGradient id="sw-gradient-0" x1="0" x2="0" y1="1" y2="0"><stop stop-color="rgba(2, 63, 58, 1)" offset="0%"/><stop stop-color="rgba(2, 63, 58, 1)" offset="100%"/></linearGradient></defs><path style="transform:translate(0, 0px); opacity:1" fill="url(#sw-gradient-0)" d="M0,98L240,130.7C480,163,960,229,1440,220.5C1920,212,2400,131,2880,147C3360,163,3840,278,4320,334.8C4800,392,5280,392,5760,383.8C6240,376,6720,359,7200,343C7680,327,8160,310,8640,261.3C9120,212,9600,131,10080,81.7C10560,33,11040,16,11520,65.3C12000,114,12480,229,12960,261.3C13440,294,13920,245,14400,261.3C14880,278,15360,359,15840,367.5C16320,376,16800,310,17280,269.5C17760,229,18240,212,18720,236.8C19200,261,19680,327,20160,302.2C20640,278,21120,163,21600,163.3C22080,163,22560,278,23040,334.8C23520,392,24000,392,24480,334.8C24960,278,25440,163,25920,130.7C26400,98,26880,147,27360,155.2C27840,163,28320,131,28800,155.2C29280,180,29760,261,30240,253.2C30720,245,31200,147,31680,89.8C32160,33,32640,16,33120,16.3C33600,16,34080,33,34320,40.8L34560,49L34560,490L34320,490C34080,490,33600,490,33120,490C32640,490,32160,490,31680,490C31200,490,30720,490,30240,490C29760,490,29280,490,28800,490C28320,490,27840,490,27360,490C26880,490,26400,490,25920,490C25440,490,24960,490,24480,490C24000,490,23520,490,23040,490C22560,490,22080,490,21600,490C21120,490,20640,490,20160,490C19680,490,19200,490,18720,490C18240,490,17760,490,17280,490C16800,490,16320,490,15840,490C15360,490,14880,490,14400,490C13920,490,13440,490,12960,490C12480,490,12000,490,11520,490C11040,490,10560,490,10080,490C9600,490,9120,490,8640,490C8160,490,7680,490,7200,490C6720,490,6240,490,5760,490C5280,490,4800,490,4320,490C3840,490,3360,490,2880,490C2400,490,1920,490,1440,490C960,490,480,490,240,490L0,490Z"/></svg>