<?xml version="1.0" standalone="no"?>
<svg xmlns:xlink="http://www.w3.org/1999/xlink" id="wave" style="transform:rotate(180deg); transition: 0.3s" viewBox="0 0 1440 490" version="1.1" xmlns="http://www.w3.org/2000/svg"><defs><linearGradient id="sw-gradient-0" x1="0" x2="0" y1="1" y2="0"><stop stop-color="rgba(2, 63, 58, 1)" offset="0%"/><stop stop-color="rgba(2, 63, 58, 1)" offset="100%"/></linearGradient></defs><path style="transform:translate(0, 0px); opacity:1" fill="url(#sw-gradient-0)" d="M0,0L120,0C240,0,480,0,720,40.8C960,82,1200,163,1440,179.7C1680,196,1920,147,2160,163.3C2400,180,2640,261,2880,310.3C3120,359,3360,376,3600,375.7C3840,376,4080,359,4320,294C4560,229,4800,114,5040,81.7C5280,49,5520,98,5760,98C6000,98,6240,49,6480,65.3C6720,82,6960,163,7200,196C7440,229,7680,212,7920,228.7C8160,245,8400,294,8640,277.7C8880,261,9120,180,9360,155.2C9600,131,9840,163,10080,147C10320,131,10560,65,10800,106.2C11040,147,11280,294,11520,367.5C11760,441,12000,441,12240,367.5C12480,294,12720,147,12960,89.8C13200,33,13440,65,13680,65.3C13920,65,14160,33,14400,81.7C14640,131,14880,261,15120,294C15360,327,15600,261,15840,236.8C16080,212,16320,229,16560,228.7C16800,229,17040,212,17160,204.2L17280,196L17280,490L17160,490C17040,490,16800,490,16560,490C16320,490,16080,490,15840,490C15600,490,15360,490,15120,490C14880,490,14640,490,14400,490C14160,490,13920,490,13680,490C13440,490,13200,490,12960,490C12720,490,12480,490,12240,490C12000,490,11760,490,11520,490C11280,490,11040,490,10800,490C10560,490,10320,490,10080,490C9840,490,9600,490,9360,490C9120,490,8880,490,8640,490C8400,490,8160,490,7920,490C7680,490,7440,490,7200,490C6960,490,6720,490,6480,490C6240,490,6000,490,5760,490C5520,490,5280,490,5040,490C4800,490,4560,490,4320,490C4080,490,3840,490,3600,490C3360,490,3120,490,2880,490C2640,490,2400,490,2160,490C1920,490,1680,490,1440,490C1200,490,960,490,720,490C480,490,240,490,120,490L0,490Z"/></svg>